<?xml version="1.0" standalone="no"?>
<!DOCTYPE svg PUBLIC "-//W3C//DTD SVG 20010904//EN"
 "http://www.w3.org/TR/2001/REC-SVG-20010904/DTD/svg10.dtd">
<svg version="1.0" xmlns="http://www.w3.org/2000/svg"
 width="187.000000pt" height="187.000000pt" viewBox="0 0 187.000000 187.000000"
 preserveAspectRatio="xMidYMid meet">
<metadata>
Created by potrace 1.11, written by Peter Selinger 2001-2013
</metadata>
<g transform="translate(0.000000,187.000000) scale(0.100000,-0.100000)"
fill="#000000" stroke="none">
<path d="M770 1855 c-82 -19 -162 -49 -234 -90 -60 -33 -147 -101 -172 -135
-7 -8 -23 -28 -37 -44 -23 -27 -78 -125 -84 -151 -1 -5 -7 -28 -12 -51 -15
-61 -5 -175 25 -262 53 -158 138 -287 423 -640 122 -152 123 -154 157 -148 45
9 129 9 184 2 l45 -7 174 220 c197 248 277 363 327 469 53 114 73 199 71 302
-3 81 -6 95 -44 172 -82 164 -244 290 -445 349 -89 26 -293 33 -378 14z"/>
<path d="M827 323 c-10 -3 -16 -10 -15 -15 5 -15 231 -15 235 -1 2 6 -5 13
-16 16 -24 6 -178 6 -204 0z"/>
<path d="M857 266 c-4 -11 -2 -28 6 -40 12 -18 12 -27 0 -63 -8 -24 -19 -43
-24 -43 -6 0 -9 -27 -7 -60 l3 -60 97 0 c54 0 98 3 99 8 1 4 2 31 4 60 2 40 0
52 -12 52 -8 0 -12 4 -9 8 2 4 -2 22 -11 40 -14 29 -14 34 6 68 12 20 19 39
16 42 -3 3 -5 -1 -5 -9 0 -12 -2 -11 -11 1 -9 13 -10 12 -5 -2 3 -10 1 -18 -4
-18 -5 0 -11 8 -14 18 -4 14 -5 14 -4 -3 1 -38 -3 -40 -17 -10 -14 29 -14 18
0 -32 4 -15 -2 -18 -30 -18 -39 0 -38 -2 -26 43 6 20 6 30 0 27 -5 -4 -9 -16
-10 -28 0 -21 -1 -21 -9 -2 -6 14 -9 16 -10 5 -1 -8 -5 -4 -9 10 -6 23 -8 23
-14 6z m113 -107 c0 -4 7 -15 16 -23 14 -15 9 -16 -55 -16 l-69 0 20 23 c19
21 88 34 88 16z"/>
</g>
</svg>
