<svg xmlns="http://www.w3.org/2000/svg" viewBox="0 0 226.8 226.8">
  <path d="M77 86.8c-3.7 2.2-7 4.7-10 7.5-5.6 5-10.6 11-14.2 17.7-3 5.5-5.2 11.5-6.8 17.8-1 4.4-1.7 9-1.8 14l137 2.7c0-6-.2-11.3-1.6-16.7-1.6-6.3-3.8-12.3-6.8-17.8-3.8-6.7-8.4-12.7-14-17.7-3-2.6-5.8-5-9.2-7v-.1z" fill="#fcf0d1"/>
  <path d="M44.2 143.8l137 2.7c0-6-.2-11.3-1.6-16.7H46c-1 4.4-1.7 9-1.8 14" fill="#f7e3a7"/>
  <path d="M52.8 112c-3 5.5-5.2 11.5-6.8 17.8h133.6c-1.6-6.3-3.8-12.3-6.8-17.8z" fill="#fae8b6"/>
  <path d="M158.8 94.3H67c-5.6 5-10.6 11-14.2 17.7h120c-3.8-6.7-8.4-12.7-14-17.7" fill="#fbebc3"/>
  <path d="M191.1 175.4c-1 0-2-.4-2.8-1-.8-1-1.3-1.8-1.3-3 0-.7 0-1.2.3-1.6.3-.6.7-.8 1.2-.8 1 0 1.8.7 2.3 2 .5 1.3.7 2.8.8 4.4zm-.8 6.2c-.8 1.2-2 1.8-3.3 1.8-1.4 0-2.4-.7-3-2-.8-1.5-1-3-1-4.6 0-3.4.6-5.6 2-6.7-.4.8-.5 1.7-.5 2.8 0 1.2.5 2.2 1.6 3 1 1 2.4 1.5 4 1.5h1.7c-.2 1.6-.7 3-1.4 4.2zm-51.7 2.3c-.3.3-.7.5-1.2.5-.8 0-1.2-.4-1.2-1.2 0-.8.7-2 2-3.2 1 1.7 1 3 .4 4zm-10.2 0c-.3.3-.7.5-1.2.5-.8 0-1.2-.4-1.2-1.2 0-.8.7-2 2-3.2 1 1.7 1 3 .4 4zm-37.7-8.3c-1.2 0-2.2-.5-3-1.2-.8-.8-1.3-1.7-1.3-3 0-.6 0-1 .4-1.5.3-.6.7-.8 1.2-.8 1 0 1.8.7 2.3 2 .5 1.3.7 2.8.8 4.4h-.4zm-1 6c-.7 1.3-1.8 2-3.2 2-1.4 0-2.4-.8-3-2.2-.8-1.4-1-3-1-4.5 0-3.4.6-5.6 2-6.7-.4.8-.5 1.7-.5 2.8 0 1.2.5 2.2 1.6 3 1 1 2.3 1.5 3.8 1.5h1.8c0 1.6-.6 3-1.4 4.2zm-27-8v1.5c-2.2 5.5-3.8 8.2-5 8.2-.8 0-1.5-.6-2-1.8-.5-1.2-.8-2.7-.8-4.5 0-1.8.4-3.5 1.4-5 1-1.3 2-2 3-2 .5 0 1 .3 1.8.8.7.5 1.3 1 1.5 1.5v1.4zm13.8-16c.3 0 .4.6.4 1.7 0 2.6-1 6.2-2.7 10.7.5-8.2 1.2-12.3 2.2-12.3zm123.2 15h-.4l-.6.3c-.3 0-.6.3-1.2.6-.5.3-1.4.7-2.7 1 0-2-.6-3.8-1.7-5.2-1-1.3-2.2-2-3.4-2-1.3 0-2.4.3-3.3 1-2 0-3.7 1-5 3-1.3 1.8-2 4-2 6v.2c-.6 1.3-1.3 2.5-2 3.5-1 1.5-1.8 2.2-2.3 2.2-.2 0-.3-.4-.3-1l.5-5.4s.5-5 .5-6.4c0-.7-.3-1.3-.8-1.7-.6-.5-1.2-.7-1.8-.7-.6 0-1.3.4-2 1-.4.5-.8.8-1 1.2-.2.4-1 1-2 2.4l-1.8 2.2v-4.1s-.2-1.3-.7-1.8c-.5-.5-1-.7-1.7-.7-1 0-2 1-3.3 3-.7 1-2 3-3.6 6.4l.3-4c.7-1.4 1-3 1-4.8v-.7c-.2-.2-.4-.3-.8-.3s-1 .3-1.8 1L154 170c-.3.3-.5 1.3-.5 3v3c-1 2-2 4-3 5.2-1 1.4-1.7 2-2.2 2-.2 0-.3-.3-.3-1.2 0-4.6.2-7.4.6-8.5l.6-2 .3-2c0-1.2-.2-2-.7-2-.5 0-1 .5-2 1.2s-1.4 1.2-1.5 1.5c0 .2-.3 1.2-.4 3-2 1.5-3.7 2.8-5 4-.2 0-.4-.3-.6-.6l-.5-.7-.5-.7-.4-.8v-.8c-.2-.3-.2-.8-.2-1.3 0-.6.3-1.3 1-2 .5-1 1.2-1.4 1.8-1.4.7 0 1 .3 1 1v.6c0 .3 0 .4.5.4.6 0 1-.6 1-1.7 0-.5-.3-1-.8-1.4-.5-.6-1.2-.8-2-.8-1.5 0-2.8.6-4 1.8-1.3 1.2-2 2.8-2 4.7l-4.5 3.7-.5-.6-.5-.7-.4-.5-.4-.8c-.2-.2-.3-.5-.3-.8v-1.4c0-.6.2-1.3.8-2 .6-1 1.3-1.4 2-1.4.6 0 1 .3 1 1l-.2.6c0 .3.2.4.6.4.4 0 .7-.6.7-1.7 0-.5-.2-1-.7-1.4-.5-.4-1.2-.6-2-.6-1.5 0-2.8.6-4 1.8-1.3 1.2-2 2.8-2 4.7 0 .7.2 1.5.6 2.2-1 2.2-2 4-3 5.3-1 1.4-1.8 2-2.3 2-.2 0-.3-.3-.3-1.2 0-4.6.2-7.4.6-8.5l.6-2 .3-2c0-1.2-.2-2-.7-2-.5 0-1 .5-2 1.2s-1.4 1.2-1.5 1.5c-.2.3-.4 2-.6 5.3v1c-1 2-1.8 3.5-2.7 4.7-1 1.4-1.8 2-2.3 2-.2 0-.3-.3-.3-1l.5-5.3.4-6.4c0-.7-.3-1.3-.8-1.7-.5-.4-1.2-.6-1.8-.6-.6 0-1.5.5-2.3 1.4-1 1-2 2.4-3.2 4.5-1.2 2-2 3-2 3.3v-4c.8-1.4 1-3 1-4.8v-.7h-.7c-.4 0-1 .2-1.8.8-.8.6-1.4 1-1.7 1.4-.2.3-.4 1.3-.4 3v.8c-.6.3-1.5.7-2.8 1 0-2-.6-3.8-1.7-5.2-1-1.3-2.2-2-3.4-2-1.3 0-2.4.3-3.3 1-2 0-3.7 1-5 3-1.3 1.8-2 4-2 6v.2c-.6 1.3-1.3 2.5-2 3.5-1 1.4-1.8 2-2.3 2-.4 0-.5-1-.5-3v-7c2.7-5.3 4-10 4-14.3 0-.6 0-1.2-.4-1.8-.2-.6-.6-1-1.2-1-2.5 0-4 2.6-4.8 7.8-.7 5.7-1 10.3-1.2 13.8l-2 3.5c-1 1.4-2 2-2.4 2-.2 0-.3-.3-.3-1.2 0-4.6.2-7.3.5-8l.6-2 .4-2c0-1.2-.2-2-.7-2-.5 0-1 .4-1.7 1-.7.4-1 .8-1.4 1.2-1.3-1.4-2.5-2-3.5-2-2.3 0-4.3 1-5.8 3s-2.2 4.3-2.2 7c0 2.5.5 4.5 1.5 5.7 1 1.2 2 1.8 3.4 1.8 1.2 0 2.3-.5 3-1.5 1-1 1.8-2.6 2.6-4.7v3.8s0 1.5.2 1.7c.7.5 1.6.8 3 .8 1.3 0 3-1.7 5-5.2 0 2.7 0 4.2.4 4.5 0 .2.5.3 1 .5l2 .3c1.6 0 3.3-1.8 5.4-5.6.3 1.2.7 2.3 1.4 3.3 1 1.6 2.6 2.4 4.7 2.4 2.8 0 5-.8 6.4-2.5 1.6-1.7 2.5-4 2.7-6.7l3-1.4v.5l-.4 5-.3 3.8c0 .4.4.7 1 1l2.4.2c.5 0 .8-.5.8-1.4V183c0-1 0-2 .3-3 0-.7 1-2.2 2.6-4.4 1.7-2.2 2.7-3.4 3-3.4.5 0 .7.5.7 1.6 0 1 0 2.7-.3 5l-.3 4.6c0 1 .2 1.6.4 1.8.7.5 1.6.8 3 .8s3.2-2 5.3-6v2.8c0 1.4 0 2.2.2 2.5.6.5 1.5.8 2.8.8 1.8 0 4-2.7 6.5-8.2 0-.2 0-.3.2-.5v.2l1 1c.5.5.8 1 1 1-2.2 2.2-3.2 3.8-3.2 4.8 0 1.4.7 2 2.2 2 1.5 0 2.7-.3 3.6-1.2 1-.8 1.5-2 1.5-3 0-1.3-.4-2.5-1-3.5l4-3c0 .3.3.7.6 1 .4.5.6 1 1 1 0 .4.4.7 1 1.2l.8 1c-2.2 2-3.2 3.7-3.2 4.7 0 1.4.7 2 2.2 2 1.5 0 2.7-.3 3.6-1.2 1-1 1.4-2 1.4-3.2 0-1.2-.4-2.4-1-3.4l4-3.2v.6l-.2 7c0 1.5 0 2.3.3 2.6.6.5 1.5.8 2.8.8 1.6 0 3.5-2.2 5.7-6.6v1.6l-.4 4c0 .3.5.6 1.2.8.7.2 1.5.3 2.3.3.5 0 .8-.5.8-1.4v-1.4c0-1 0-2 .2-3 0-.8 1-2.4 2.4-4.6 1.3-2.2 2.3-3.4 2.6-3.4.4 0 .6.6.6 1.7 0 1.2 0 3.2-.3 6l-.4 4.8c0 .5.3.8 1 1l2 .3c.6 0 .8-.5.8-1.4 0-3.8 0-6.2.3-7.3 0-.6 1-1.6 2.3-3 1.4-1.4 2.4-2.2 2.8-2.2.4 0 .5.5.5 1.6 0 1.2 0 2.8-.3 5l-.3 4.7c0 1 0 1.6.3 1.8.7.5 1.5.8 2.7.8 1.5 0 3.2-2 5.3-5.7.3 1.2.7 2.3 1.4 3.3 1 1.5 2.6 2.3 4.7 2.3 3 0 5-1 6.5-2.6 1.5-1.7 2.4-4 2.6-6.7 1.6-.6 3-1.3 4-2s1.4-1.3 1.4-1.5c-.3-.8-.4-1-.7-1zm-53.7-11c0-.7.3-1.2 1-1.6.5-.4 1-.6 1.6-.6 1 0 1.3.5 1.3 1.5s-.4 1.8-1 2.5c-.4.7-1.2 1-2 1-.7 0-1-1-1-3zm-29.3 3c-.6 0 5-3.6 5-4.8 0-.3.3-.6 1-1l2-.3c1 0 1.4.3 1.4 1 0 .5-6 4-6.7 4.4-.5.3-1.4.6-2.5.6zm-75 8.4c-1.6 0-2.4-.5-2.4-1.2 0-.4.4-.5 1.3-.5 1 0 1.8.4 2.8 1.2-.5.3-1 .4-1.7.4zm8.6-8c0-1.6-.6-3-1.8-4-1.2-1.3-2.6-2-4.3-2.6-1.6-.5-3-.7-4.4-.7h-3.2c0-1.7-.2-2.7-.7-2.7-1.3 0-2.2 1-2.8 3.3-4.4 1-6.6 3-6.6 6 0 .2 0 .5.3 1s.5.4 1 .4c.7 0 1-.2 1.5-.6.3-.3.6-1 .7-2.2 0-1.3 1-2.3 2.8-3l-.2 4.6c0 2 0 4.7-.3 8l-.3 5.7c0 2 .2 3 .6 3.5.4.4 1.3.6 2.7.6.4 0 .5-1 .5-3.6 0-6.5 0-11.3.3-14.4l.2-4.6h1c2.2 0 4.3.6 6.2 2 2 1.2 3 3 3 5s-.8 3.5-2 5c-1.5-.8-2.7-1-4-1-1 0-2 0-2.6.5-.5.3-.8.7-.8 1.2 0 1.6 1.3 2.4 3.8 2.4 1 0 2.2-.3 3.3-.8 1 1.4 1.5 3 1.5 4.5 0 1.6-.7 3-2 4.3-1.4 1.2-3 2-4.7 2-.7 0-1.8-.3-3.2-.8-1.4-.5-2.4-.7-2.8-.7-1.3 0-2 .4-2 1 0 .5 0 1 .4 1.2.2.3.5.5.7.5 1.2.4 3 .5 5.8.5 4 0 7-1.2 9.3-3.6 1.3-1.3 2-3 2-5s-1-3.7-2.8-5.2c2.8-2.3 4-4.8 4-7.5z" fill="#fff"/>
  <path d="M25.5 199l-1.3-1.2 12.2-.7 1 21-12 .8 1.2-1-1.3-1c.5-.4.7-.7 1-1.2l-1.2-1.2 1.2-1.4-1.3-1.3 1-1.5-1.3-1.3 1-1.6-1.2-1.3c.5-.5.7-.8 1-1.4l-1.2-1.3 1-1.5-1.2-1.3c.8-.6 1-1 1.5-1.4zm175.2 0l1.3-1.2-12.2-.7-1 21 12 .8-1.2-1 1.3-1c-.6-.4-.8-.7-1.2-1.2l1.3-1.2-1-1.4 1.3-1.3-1-1.5 1.2-1.3-1-1.6 1.2-1.3c-.5-.5-.7-.8-1-1.4l1.2-1.3-1.2-1.5 1.3-1.3-1.3-1.4z" fill="#e1af00"/>
  <path d="M89.892 204.664c-.12.002-.228.014-.316.025l.025 1.68c.08.01.21 0 .28 0 .84-.02 1.19-.37 1.18-.91 0-.48-.4-.82-1.16-.81m-.02-1.2c.69-.01 1.03-.34 1.02-.82-.01-.47-.39-.8-1.07-.79-.11 0-.22.01-.28.02l.03 1.57c.09.01.23 0 .32 0m6.36 1.746l.97-.01c-.27-1.71-.51-2.89-.51-2.89s-.21 1.18-.45 2.9m-16.77.285l.97-.026c-.296-1.71-.55-2.88-.55-2.88s-.2 1.182-.42 2.902M66.58 202.5c-.545.017-.933.96-.896 2.167.04 1.19.467 2.106 1.03 2.09.565-.018.93-.96.897-2.15-.04-1.21-.48-2.13-1.025-2.11m6.14-.216h-.06l.07 2.596c.96-.13 1.473-.55 1.45-1.4-.017-.626-.577-1.226-1.46-1.2" fill="#ecc65e"/>
  <path d="M185.5 205.3v1.5c-2.3-.1-3.5-.3-5.7-.3V205c2.3.1 3.5.3 5.8.3zm-12.614-.932c1.117.876 1.532 1.418 1.498 2.3-.043 1.108-1.01 1.963-2.117 1.92-.723-.028-1.44-.423-1.978-1.167l1.16-.92c.25.5.56.74.86.75.33.02.61-.25.62-.59.01-.36-.32-.71-.93-1.18-.98-.77-1.36-1.3-1.33-2.12.04-1.03.93-1.85 2.03-1.81.61.03 1.25.33 1.8 1.07l-1.14.85c-.17-.26-.41-.58-.75-.59-.29-.01-.56.2-.57.53-.01.3.192.52.8.99m-4.147-1.59l-1.34-.05-.195 5.6-1.4-.05.192-5.592-1.34-.047.044-1.34 4.07.14zm-6.38 5.38l-1.388-.04.072-2.494-1.586-.043-.073 2.498-1.39-.04.21-6.93 1.39.04-.095 3.05 1.582.047.09-3.05 1.39.04zm-6.63-3.26c-.05 1.89-1.11 3.06-2.388 3.03-1.258-.03-2.385-1.29-2.324-3.63.05-1.88 1.15-3.4 2.51-3.37.82.02 1.58.6 1.976 1.69l-1.26.627c-.19-.67-.485-.916-.75-.92-.566-.02-1.026.91-1.055 2.02-.04 1.545.47 2.25.946 2.264.46.014.918-.5.968-1.27l-.92-.02.03-1.22 2.26.055c.02.25.026.48.02.76m-7.08 2.89l-1.394-.03.16-6.934 1.4.03zm-3.48-.074l-3.32-.06.134-6.933 1.387.027-.104 5.586 1.93.032zm-5.475-5.7l-2.08-.03-.027 1.706 1.94.03-.02 1.35-1.94-.03-.04 2.546-1.358-.02.11-6.934 3.44.053zm-9.87 5.466l-1.176-.01-1.747-3.7-.036 3.685-1.333-.01.06-6.935 1.2.01 1.72 3.75.03-3.738 1.34.01zm-9.065-.035c-1.396-.003-2.36-1.494-2.353-3.495.01-1.98 1.055-3.51 2.38-3.51 1.33.01 2.36 1.55 2.354 3.53-.01 2-.986 3.482-2.38 3.48m-6.82-.016c-1.4 0-2.37-1.485-2.37-3.486 0-1.98 1.04-3.52 2.365-3.52s2.363 1.535 2.363 3.516c0 2-.97 3.49-2.366 3.49m-7.21-.02l-.03-6.932 1.39-.008.02 5.59 1.93-.01.008 1.35zm-5.41.038l-.05-6.937 1.386-.01.04 5.585 1.93-.016.01 1.347zm-3.673.033l-.21-1.04-1.43.01-.186 1.04-1.44.017s.27-1.43.686-3.45c.39-1.88.81-3.5.81-3.5l1.563-.016s.45 1.61.88 3.49c.46 2.006.76 3.43.76 3.43zm-7.78.14c-.58.01-1.13-.004-1.6-.06l-.104-6.82c.578-.1 1.04-.132 1.45-.14 1.72-.025 2.65.76 2.665 1.95.01.646-.34 1.147-.84 1.43.65.25 1.05.848 1.06 1.5.02 1.2-.8 2.1-2.63 2.13m-8.967.128l-.22-1.04-1.43.033-.176 1.044-1.44.03s.255-1.43.646-3.454c.366-1.89.766-3.516.766-3.516l1.563-.04s.47 1.606.92 3.48c.48 2 .8 3.42.8 3.42zm-6.72.16l-.81-1.836c-.19.068-.444.1-.65.11l.044 1.765-1.34.03-.18-6.84c.286-.067.74-.16 1.155-.17 1.83-.05 3.053.98 3.1 2.544.02.783-.33 1.536-.92 2.007l1.15 2.35zm-7.48.24c-1.4.04-2.41-1.417-2.473-3.418-.06-1.98.93-3.55 2.26-3.59 1.32-.04 2.41 1.46 2.47 3.44.06 2-.866 3.514-2.26 3.56m-5.65.15l-1.502.05-1.926-6.878 1.523-.052 1.08 4.74.75-4.8 1.52-.055zm-8.72.32l-.26-6.93 3.58-.14.05 1.336-2.23.08.064 1.665 2.093-.08.05 1.348-2.098.08.045 1.25 2.23-.09.05 1.34zm-5.82-2.23v.1l-5.8.3c-.2-.5-.2-.9-.2-1.5 2.4-.1 3.6-.3 6-.3zm-14.1-10.5c.9 8.3 1.2 12.5 2.2 20.7 52-2.6 104-2.7 156 0 .9-8.3 1.2-12.5 2.2-20.7-53.4-3-106.9-3-160.4 0" fill="#ecc65e"/>
  <path d="M120.783 201.824c-.545-.002-.964.927-.97 2.136-.005 1.19.388 2.12.953 2.124.565.002.965-.928.97-2.116.005-1.21-.408-2.142-.953-2.144m-6.84-.014c-.545 0-.96.93-.96 2.14 0 1.19.396 2.12.96 2.12.565 0 .96-.93.96-2.12 0-1.208-.415-2.14-.96-2.14" fill="#ecc65e"/>
  <path d="M11.5 145.8c-1.2.2 2.3 1.6 16.7 1.6 14.5 0 46-1 48.5-1.5 2.5-.6 9 1.7 9 1.7H109l14.6-2.2L3.4 143s14 1.7 8 2.8zm137.6-2.3c-9 0-18 1-25.2 2l57.3 1c-6.7-1.2-18.7-3.2-32-3zm38.2 4.5l-6-1.3 42 1-36 .4z" fill="#e1af00"/>
  <path d="M120.7 145.3v-1.6h-14.3v1.4l14.3.3zm-14.3-1.5l14.4-.2v-1.3h-14.4v1.4zm-.2-3h14.6v-1.4h-14.7l.2 1.4zm14.6 1.5V141h-14.5v1.2H121zm-14.6-4.5H121v-1.3h-15v1.3zm0 1.4v-1.4l14.8.2v1.4z" fill="#7b6a58"/>
  <path d="M109.7 131h-.2l-2.3 5h1l2-3h.3l-1.7 3h.5l1.7-3h5l1.7 3h.5l-1.7-3h.3l2 3h1l-2.3-5h-.2c1.2-2.3 2.4-4.5 3.4-7l-3 5 1.4-5-1.8 5.3v-5.5l-.6 6c-.6-2-1.2-4-2-6 .5 2.4 1 5 1.8 7.3h-1.2V130H114v1.3h-.8V130H112v1.3h-1.3c.7-2.4 1.3-4.8 1.8-7.3-.8 2-1.4 4-2 6l-.6-6c-.2 1.4 0 5 0 5.6l-2-5.4 1.3 5-3-5c1 2.4 2.3 4.7 3.4 7zm-5.3-9l1 1.7c2.4-.4 5-.8 8-.8s5.7.3 8 .7l1-1.5c-2-.6-5.2-1-9-1-4 0-7 .4-9 1z" fill="#585756"/>
  <path d="M123 121c1-1.4 21.6-26.8 26.6-33.7 8.3-11.4 14.5-22.6 15.7-35 2-22.2-23-44.3-52-44.3l-5 .2c-26.8 2.4-48.8 23.2-46.8 44 1.2 12 7.2 23.2 15.4 34.5 4.2 6 24.5 31.2 26.8 34.3 0 0 4.5-1 9.5-1s9.6 1 9.6 1z" fill="#e1af00"/>
  <path d="M117.4 8.2h-1l-3-.2c18.7 0 35 22 33.5 44.2-1.6 24-15 43.5-27.2 68.3l2.4.4C138.6 96 157 76 159 52c1.8-21-18-42-41.6-44zm15 38c.7-22-9-38.2-19-38.2 4 0 7.3 15 7 37.2-.3 23.8-3 50-5.6 74.8h2.3c6.5-24.6 14.6-50 15.4-73.8zM113.4 8c-10 0-19.8 16-19 38.2.8 23.8 9 49 15.5 74h2c-2.4-25-5.2-51.2-5.5-75-.4-22 3-37 7-37.2M107 120.5l-2.4.4C88.2 96 70 76 67.8 52c-1.8-21 18-42.3 42-44h3.6C94.7 8 78.4 30 80 52c1.4 24 14.8 43.5 27 68.3z" fill="#641221"/>
</svg>
