<svg xmlns="http://www.w3.org/2000/svg" viewBox="0 0 226.8 226.8"><path d="M77 86.8c-3.7 2.2-7 4.7-10 7.5-5.6 5-10.6 11-14.2 17.7-3 5.5-5.2 11.5-6.8 17.8-1 4.4-1.7 9-1.8 14l137 2.7c0-6-.2-11.3-1.6-16.7-1.6-6.3-3.8-12.3-6.8-17.8-3.8-6.7-8.4-12.7-14-17.7-3-2.6-5.8-5-9.2-7v-.1L77 86.8z" fill="#fbf0d1"/><path d="M44.2 143.8l137 2.7c0-6-.2-11.3-1.6-16.7H46c-1 4.4-1.7 9-1.8 14z" fill="#f7e3a7"/><path d="M52.8 112c-3 5.5-5.2 11.5-6.8 17.8h133.6c-1.6-6.3-3.8-12.3-6.8-17.8z" fill="#f9e7b6"/><path d="M158.8 94.3H67c-5.6 5-10.6 11-14.2 17.7h120c-3.8-6.7-8.4-12.7-14-17.7z" fill="#faebc3"/><path d="M50.3 165c0-1.6-.6-3-1.8-4-1.2-1.3-2.6-2-4.3-2.6-1.6-.5-3-.7-4.4-.7h-3.2c0-1.7-.2-2.7-.7-2.7-1.3 0-2.2 1-2.8 3.3-4.4 1-6.6 3-6.6 6 0 .2 0 .5.3 1s.5.4 1 .4c.7 0 1-.2 1.5-.6.3-.3.6-1 .7-2.2 0-1.3 1-2.3 2.8-3l-.2 4.6c0 2 0 4.7-.3 8l-.3 5.7c0 2 .2 3 .6 3.5.4.4 1.3.6 2.7.6.4 0 .5-1 .5-3.6 0-6.5 0-11.3.3-14.4l.2-4.6h1c2.2 0 4.3.6 6.2 2 2 1.2 3 3 3 5s-.8 3.5-2 5c-1.5-.8-2.7-1-4-1-1 0-2 0-2.6.5-.5.3-.8.7-.8 1.2 0 1.6 1.3 2.4 3.8 2.4 1 0 2.2-.3 3.3-.8 1 1.4 1.5 3 1.5 4.5 0 1.6-.7 3-2 4.3-1.4 1.2-3 2-4.7 2-.7 0-1.8-.3-3.2-.8-1.4-.5-2.4-.7-2.8-.7-1.3 0-2 .4-2 1 0 .5 0 1 .4 1.2.2.3.5.5.7.5 1.2.4 3 .5 5.8.5 4 0 7-1.2 9.3-3.6 1.3-1.3 2-3 2-5s-1-3.7-2.8-5.2c2.8-2.3 4-4.8 4-7.5zm-8.6 8c-1.6 0-2.4-.5-2.4-1.2 0-.4.4-.5 1.3-.5 1 0 1.8.4 2.8 1.2-.5.3-1 .4-1.7.4zm75-8.4c-.6 0 5-3.6 5-4.8 0-.3.3-.6 1-1l2-.3c1 0 1.4.3 1.4 1 0 .5-6 4-6.7 4.4-.5.3-1.4.6-2.5.6zm29.3-3c0-.7.3-1.2 1-1.6.5-.4 1-.6 1.6-.6 1 0 1.3.5 1.3 1.5s-.4 1.8-1 2.5c-.4.7-1.2 1-2 1-.7 0-1-1-1-3zm53.7 11h-.4l-.6.3c-.3 0-.6.3-1.2.6-.5.3-1.4.7-2.7 1 0-2-.6-3.8-1.7-5.2-1-1.3-2.2-2-3.4-2-1.3 0-2.4.3-3.3 1-2 0-3.7 1-5 3-1.3 1.8-2 4-2 6v.2c-.6 1.3-1.3 2.5-2 3.5-1 1.5-1.8 2.2-2.3 2.2-.2 0-.3-.4-.3-1l.5-5.4s.5-5 .5-6.4c0-.7-.3-1.3-.8-1.7-.6-.5-1.2-.7-1.8-.7-.6 0-1.3.4-2 1-.4.5-.8.8-1 1.2-.2.4-1 1-2 2.4l-1.8 2.2v-4.1s-.2-1.3-.7-1.8c-.5-.5-1-.7-1.7-.7-1 0-2 1-3.3 3-.7 1-2 3-3.6 6.4l.3-4c.7-1.4 1-3 1-4.8v-.7c-.2-.2-.4-.3-.8-.3s-1 .3-1.8 1L154 170c-.3.3-.5 1.3-.5 3v3c-1 2-2 4-3 5.2-1 1.4-1.7 2-2.2 2-.2 0-.3-.3-.3-1.2 0-4.6.2-7.4.6-8.5l.6-2 .3-2c0-1.2-.2-2-.7-2-.5 0-1 .5-2 1.2s-1.4 1.2-1.5 1.5c0 .2-.3 1.2-.4 3-2 1.5-3.7 2.8-5 4-.2 0-.4-.3-.6-.6l-.5-.7-.5-.7-.4-.8v-.8c-.2-.3-.2-.8-.2-1.3 0-.6.3-1.3 1-2 .5-1 1.2-1.4 1.8-1.4.7 0 1 .3 1 1v.6c0 .3 0 .4.5.4.6 0 1-.6 1-1.7 0-.5-.3-1-.8-1.4-.5-.6-1.2-.8-2-.8-1.5 0-2.8.6-4 1.8-1.3 1.2-2 2.8-2 4.7l-4.5 3.7-.5-.6-.5-.7-.4-.5-.4-.8c-.2-.2-.3-.5-.3-.8v-1.4c0-.6.2-1.3.8-2 .6-1 1.3-1.4 2-1.4.6 0 1 .3 1 1l-.2.6c0 .3.2.4.6.4.4 0 .7-.6.7-1.7 0-.5-.2-1-.7-1.4-.5-.4-1.2-.6-2-.6-1.5 0-2.8.6-4 1.8-1.3 1.2-2 2.8-2 4.7 0 .7.2 1.5.6 2.2-1 2.2-2 4-3 5.3-1 1.4-1.8 2-2.3 2-.2 0-.3-.3-.3-1.2 0-4.6.2-7.4.6-8.5l.6-2 .3-2c0-1.2-.2-2-.7-2-.5 0-1 .5-2 1.2s-1.4 1.2-1.5 1.5c-.2.3-.4 2-.6 5.3v1c-1 2-1.8 3.5-2.7 4.7-1 1.4-1.8 2-2.3 2-.2 0-.3-.3-.3-1l.5-5.3.4-6.4c0-.7-.3-1.3-.8-1.7-.5-.4-1.2-.6-1.8-.6-.6 0-1.5.5-2.3 1.4-1 1-2 2.4-3.2 4.5-1.2 2-2 3-2 3.3v-4c.8-1.4 1-3 1-4.8v-.7h-.7c-.4 0-1 .2-1.8.8-.8.6-1.4 1-1.7 1.4-.2.3-.4 1.3-.4 3v.8c-.6.3-1.5.7-2.8 1 0-2-.6-3.8-1.7-5.2-1-1.3-2.2-2-3.4-2-1.3 0-2.4.3-3.3 1-2 0-3.7 1-5 3-1.3 1.8-2 4-2 6v.2c-.6 1.3-1.3 2.5-2 3.5-1 1.4-1.8 2-2.3 2-.4 0-.5-1-.5-3v-7c2.7-5.3 4-10 4-14.3 0-.6 0-1.2-.4-1.8-.2-.6-.6-1-1.2-1-2.5 0-4 2.6-4.8 7.8-.7 5.7-1 10.3-1.2 13.8l-2 3.5c-1 1.4-2 2-2.4 2-.2 0-.3-.3-.3-1.2 0-4.6.2-7.3.5-8l.6-2 .4-2c0-1.2-.2-2-.7-2-.5 0-1 .4-1.7 1-.7.4-1 .8-1.4 1.2-1.3-1.4-2.5-2-3.5-2-2.3 0-4.3 1-5.8 3s-2.2 4.3-2.2 7c0 2.5.5 4.5 1.5 5.7 1 1.2 2 1.8 3.4 1.8 1.2 0 2.3-.5 3-1.5 1-1 1.8-2.6 2.6-4.7v3.8s0 1.5.2 1.7c.7.5 1.6.8 3 .8 1.3 0 3-1.7 5-5.2 0 2.7 0 4.2.4 4.5 0 .2.5.3 1 .5l2 .3c1.6 0 3.3-1.8 5.4-5.6.3 1.2.7 2.3 1.4 3.3 1 1.6 2.6 2.4 4.7 2.4 2.8 0 5-.8 6.4-2.5 1.6-1.7 2.5-4 2.7-6.7l3-1.4v.5l-.4 5-.3 3.8c0 .4.4.7 1 1l2.4.2c.5 0 .8-.5.8-1.4V183c0-1 0-2 .3-3 0-.7 1-2.2 2.6-4.4 1.7-2.2 2.7-3.4 3-3.4.5 0 .7.5.7 1.6 0 1 0 2.7-.3 5l-.3 4.6c0 1 .2 1.6.4 1.8.7.5 1.6.8 3 .8s3.2-2 5.3-6v2.8c0 1.4 0 2.2.2 2.5.6.5 1.5.8 2.8.8 1.8 0 4-2.7 6.5-8.2 0-.2 0-.3.2-.5v.2l1 1c.5.5.8 1 1 1-2.2 2.2-3.2 3.8-3.2 4.8 0 1.4.7 2 2.2 2 1.5 0 2.7-.3 3.6-1.2 1-.8 1.5-2 1.5-3 0-1.3-.4-2.5-1-3.5l4-3c0 .3.3.7.6 1 .4.5.6 1 1 1 0 .4.4.7 1 1.2l.8 1c-2.2 2-3.2 3.7-3.2 4.7 0 1.4.7 2 2.2 2 1.5 0 2.7-.3 3.6-1.2 1-1 1.4-2 1.4-3.2 0-1.2-.4-2.4-1-3.4l4-3.2v.6l-.2 7c0 1.5 0 2.3.3 2.6.6.5 1.5.8 2.8.8 1.6 0 3.5-2.2 5.7-6.6v1.6l-.4 4c0 .3.5.6 1.2.8.7.2 1.5.3 2.3.3.5 0 .8-.5.8-1.4v-1.4c0-1 0-2 .2-3 0-.8 1-2.4 2.4-4.6 1.3-2.2 2.3-3.4 2.6-3.4.4 0 .6.6.6 1.7 0 1.2 0 3.2-.3 6l-.4 4.8c0 .5.3.8 1 1l2 .3c.6 0 .8-.5.8-1.4 0-3.8 0-6.2.3-7.3 0-.6 1-1.6 2.3-3 1.4-1.4 2.4-2.2 2.8-2.2.4 0 .5.5.5 1.6 0 1.2 0 2.8-.3 5l-.3 4.7c0 1 0 1.6.3 1.8.7.5 1.5.8 2.7.8 1.5 0 3.2-2 5.3-5.7.3 1.2.7 2.3 1.4 3.3 1 1.5 2.6 2.3 4.7 2.3 3 0 5-1 6.5-2.6 1.5-1.7 2.4-4 2.6-6.7 1.6-.6 3-1.3 4-2s1.4-1.3 1.4-1.5c-.3-.8-.4-1-.7-1zm-123.2-15c.3 0 .4.6.4 1.7 0 2.6-1 6.2-2.7 10.7.5-8.2 1.2-12.3 2.2-12.3zm-13.8 16v1.5c-2.2 5.5-3.8 8.2-5 8.2-.8 0-1.5-.6-2-1.8-.5-1.2-.8-2.7-.8-4.5 0-1.8.4-3.5 1.4-5 1-1.3 2-2 3-2 .5 0 1 .3 1.8.8.7.5 1.3 1 1.5 1.5v1.4zm27 8c-.7 1.3-1.8 2-3.2 2-1.4 0-2.4-.8-3-2.2-.8-1.4-1-3-1-4.5 0-3.4.6-5.6 2-6.7-.4.8-.5 1.7-.5 2.8 0 1.2.5 2.2 1.6 3 1 1 2.3 1.5 3.8 1.5h1.8c0 1.6-.6 3-1.4 4.2zm1-6c-1.2 0-2.2-.5-3-1.2-.8-.8-1.3-1.7-1.3-3 0-.6 0-1 .4-1.5.3-.6.7-.8 1.2-.8 1 0 1.8.7 2.3 2 .5 1.3.7 2.8.8 4.4h-.4zm37.7 8.3c-.3.3-.7.5-1.2.5-.8 0-1.2-.4-1.2-1.2 0-.8.7-2 2-3.2 1 1.7 1 3 .4 4zm10.2 0c-.3.3-.7.5-1.2.5-.8 0-1.2-.4-1.2-1.2 0-.8.7-2 2-3.2 1 1.7 1 3 .4 4zm51.7-2.3c-.8 1.2-2 1.8-3.3 1.8-1.4 0-2.4-.7-3-2-.8-1.5-1-3-1-4.6 0-3.4.6-5.6 2-6.7-.4.8-.5 1.7-.5 2.8 0 1.2.5 2.2 1.6 3 1 1 2.4 1.5 4 1.5h1.7c-.2 1.6-.7 3-1.4 4.2zm.8-6.2c-1 0-2-.4-2.8-1-.8-1-1.3-1.8-1.3-3 0-.7 0-1.2.3-1.6.3-.6.7-.8 1.2-.8 1 0 1.8.7 2.3 2 .5 1.3.7 2.8.8 4.4z" fill="#fff"/><path d="M200.7 199l1.3-1.2-12.2-.7-1 21 12 .8-1.2-1 1.3-1c-.6-.4-.8-.7-1.2-1.2l1.3-1.2-1-1.4 1.3-1.3-1-1.5 1.2-1.3-1-1.6 1.2-1.3c-.5-.5-.7-.8-1-1.4l1.2-1.3-1.2-1.5 1.3-1.3-1.3-1.4zm-175.2 0l-1.3-1.2 12.2-.7 1 21-12 .8 1.2-1-1.3-1c.5-.4.7-.7 1-1.2l-1.2-1.2 1.2-1.4-1.3-1.3 1-1.5-1.3-1.3 1-1.6-1.2-1.3c.5-.5.7-.8 1-1.4l-1.2-1.3 1-1.5-1.2-1.3c.8-.6 1-1 1.5-1.4z" fill="#e1af00"/><path d="M156.3 203.6c0 .8-.5 1.2-1.4 1.3v-2.6c.8 0 1.3.6 1.3 1.2zm-41.8 1.4h1l-.5-3zm-11.7-3.2c-.5 0-1 1-1 2 0 1.3.5 2 1 2s1-.8 1-2c0-1-.5-2-1-2zm-49 4.5h.8l-.6-3-.3 3zm139-10.4c-1 8.2-1.3 12.4-2.2 20.7-52-2.7-104-2.6-156 0-1-8.2-1.3-12.4-2.2-20.7 53.5-3 107-3 160.4 0zM46.5 206.4V205c-2.4 0-3.6.2-6 .3 0 .6 0 1 .2 1.5l5.8-.3zm10.3 2l-1-3.4c-.4-1.8-1-3.5-1-3.5H53l-.7 3.8-.6 3.6c.7 0 1 0 1.7-.2v-1H55v1c.8-.2 1-.2 1.8-.2zm6.4-.2v-1.5h-2l-.3-5.5h-1.7c0 3 .2 4.4.3 7.3l3.6-.3zm6.6-.2v-1.4h-2.3v-1h2V204h-2v-1.4h2.3V201H66c0 3 0 4.4.2 7.3l3.6-.2zm7.7 0c0-3 0-4.4-.2-7.3h-1.5v3.5l-1.7-3.4h-1.3c0 3 0 4.3.2 7.2h1.4v-3.4L76 208zm5.7-6h1.4v-1.4h-4.3v1.6h1.4v5.7h1.7c-.2-2.5-.2-3.7-.2-6zm8 5.6V206H89v-1h2v-1.5h-2V202h2.3v-1.5h-3.8v7.3c1.5-.2 2.2-.2 3.8-.2zm6.2-2.3v-5h-1.7v5c0 .5 0 .8-.3.8 0 0-.3 0-.5-.2l-1.3 1c.5.6 1 .8 1.6.8 1.2 0 2-1 2-2.3zm8-1.4c0-2.2-1.2-3.7-2.6-3.7-1.4 0-2.5 1.6-2.5 3.7 0 2 1 3.6 2.5 3.6s2.5-1.6 2.5-3.7zm12 3.4l-.7-3.6-.8-3.6h-2l-1 3.6-.6 3.6h1.7l.3-1h1.4c0 .4 0 .6.2 1h1.4zm6.3-7h-4.3v1.4h1.4v5.7h1.6v-5.7h1.4v-1.5zm8.5 2c0-.4.2-.6.5-.6.4 0 .6.4.8.6l1.3-1c-.6-.8-1.4-1-2-1-1.2 0-2 .8-2 2 0 .8.3 1.3 1.3 2 .7.5 1 1 1 1.2 0 .3-.2.5-.4.5-.3 0-.6-.2-1-.7l-1.2 1c.6 1 1.4 1.3 2.2 1.3 1.2 0 2.2-1 2.2-2s-.4-1.5-1.6-2.4c-.8-.4-1-.6-1-1zm10-2h-1.6v5c0 .5-.4.8-.8.8s-.6-.3-.6-.7v-5h-1.5v5c0 1.3.8 2.3 2 2.3 1.4 0 2.4-1 2.4-2.2l.2-5zm8 .3h-1.6v3.5l-1.7-3.5h-1.5c0 3 0 4.3-.2 7.2h1.5v-3.5l1.7 3.5h1.3l.3-7.3zm7.7 7.4l-1.2-2.4c.6-.5 1-1.2 1-2 0-1.6-1-2.8-3.2-3l-1.3.2c0 2.8 0 4.2-.2 7h1.7v-1.6h.6l.7 1.7h2zm4.8-7h-1.6c0 3 0 4.3-.2 7.2h1.6c0-2.8 0-4.2.2-7zm4.7 2.2c0-.3.2-.5.5-.5.4 0 .6.4.8.6l1.3-1c-.5-.8-1.2-1.2-2-1.2-1 0-2 1-2 2s.3 1.4 1.3 2.2c.6.4 1 .8 1 1 0 .4-.4.6-.6.6-.3 0-.6-.3-1-.8l-1.2 1c.6 1 1.4 1.4 2.2 1.4 1.2 0 2.2-1 2.3-2 0-1-.4-1.5-1.6-2.4-.7-.3-1-.5-1-.8zm9.4-1.5c-1.6 0-2.4 0-4-.2 0 3 0 4.3-.2 7.2 1.5 0 2.3 0 3.8.2v-1.6h-2.2V206h2c0-.5 0-.8.2-1.4h-2V203h2.3v-1.5zm8.8 3.6c-2.3 0-3.5-.2-5.8-.3v1.5c2.2 0 3.4.2 5.7.3v-1.5z" fill="#ecc65f"/><path d="M187.3 148l-6-1.3 42 1-36 .4zm-38.2-4.5c-9 0-18 1-25.2 2l57.3 1c-6.7-1.2-18.7-3.2-32-3zm-137.6 2.3c-1.2.2 2.3 1.6 16.7 1.6 14.5 0 46-1 48.5-1.5 2.5-.6 9 1.7 9 1.7H109l14.6-2.2L3.4 143s14 1.7 8 2.8z" fill="#e1af00"/><path d="M106.2 139.2v-1.4l14.8.2v1.4zm0-1.4H121v-1.3h-15v1.3zm14.6 4.5V141h-14.5v1.2H121zm-14.6-1.5h14.6v-1.4h-14.7l.2 1.4zm.2 3l14.4-.2v-1.3h-14.4v1.4zm14.3 1.5v-1.6h-14.3v1.4l14.3.3z" fill="#7b6a58"/><path d="M104.4 122l1 1.7c2.4-.4 5-.8 8-.8s5.7.3 8 .7l1-1.5c-2-.6-5.2-1-9-1-4 0-7 .4-9 1zm5.3 9h-.2l-2.3 5h1l2-3h.3l-1.7 3h.5l1.7-3h5l1.7 3h.5l-1.7-3h.3l2 3h1l-2.3-5h-.2c1.2-2.3 2.4-4.5 3.4-7l-3 5 1.4-5-1.8 5.3v-5.5l-.6 6c-.6-2-1.2-4-2-6 .5 2.4 1 5 1.8 7.3h-1.2V130H114v1.3h-.8V130H112v1.3h-1.3c.7-2.4 1.3-4.8 1.8-7.3-.8 2-1.4 4-2 6l-.6-6c-.2 1.4 0 5 0 5.6l-2-5.4 1.3 5-3-5c1 2.4 2.3 4.7 3.4 7z" fill="#575756"/><path d="M123 121c1-1.4 21.6-26.8 26.6-33.7 8.3-11.4 14.5-22.6 15.7-35 2-22.2-23-44.3-52-44.3l-5 .2c-26.8 2.4-48.8 23.2-46.8 44 1.2 12 7.2 23.2 15.4 34.5 4.2 6 24.5 31.2 26.8 34.3 0 0 4.5-1 9.5-1s9.6 1 9.6 1z" fill="#e1af00"/><path d="M107 120.5l-2.4.4C88.2 96 70 76 67.8 52c-1.8-21 18-42.3 42-44h3.6C94.7 8 78.4 30 80 52c1.4 24 14.8 43.5 27 68.3zM113.4 8c-10 0-19.8 16-19 38.2.8 23.8 9 49 15.5 74h2c-2.4-25-5.2-51.2-5.5-75-.4-22 3-37 7-37.2zm19 38.2c.7-22-9-38.2-19-38.2 4 0 7.3 15 7 37.2-.3 23.8-3 50-5.6 74.8h2.3c6.5-24.6 14.6-50 15.4-73.8zm-15-38h-1l-3-.2c18.7 0 35 22 33.5 44.2-1.6 24-15 43.5-27.2 68.3l2.4.4C138.6 96 157 76 159 52c1.8-21-18-42-41.6-44z" fill="#641220"/></svg>
